<svg xmlns="http://www.w3.org/2000/svg" xmlns:xlink="http://www.w3.org/1999/xlink" xmlns:lucid="lucid" width="493" height="338"><g transform="translate(-323 -62)" lucid:page-tab-id="0_0"><path d="M500 181.34a6 6 0 0 1 6-6h128a6 6 0 0 1 6 6v98.53a6 6 0 0 1-6 6H506a6 6 0 0 1-6-6z" stroke="#8ca88e" stroke-width="3" fill="#edf5ff"/><use xlink:href="#a" transform="matrix(1,0,0,1,512,187.3446338662089) translate(3.4351851851852047 52.809027777777764)"/><path d="M340 166a6 6 0 0 1 6-6h88a6 6 0 0 1 6 6v48a6 6 0 0 1-6 6h-88a6 6 0 0 1-6-6z" stroke="#8ca88e" stroke-width="3" fill="#fcfcca"/><use xlink:href="#b" transform="matrix(1,0,0,1,345,165) translate(12.99382716049383 20.90277777777778)"/><use xlink:href="#c" transform="matrix(1,0,0,1,345,165) translate(27.098765432098766 47.56944444444444)"/><path d="M520 84.33a6 6 0 0 1 6-6h88a6 6 0 0 1 6 6v51.34a6 6 0 0 1-6 6h-88a6 6 0 0 1-6-6z" stroke="#8ca88e" stroke-width="3" fill="#e3fae3"/><use xlink:href="#d" transform="matrix(1,0,0,1,525,83.33333333333334) translate(25.493827160493826 21.15277777777778)"/><use xlink:href="#e" transform="matrix(1,0,0,1,525,83.33333333333334) translate(5.617283950617285 47.81944444444444)"/><path d="M520 326a6 6 0 0 1 6-6h88a6 6 0 0 1 6 6v51.33a6 6 0 0 1-6 6h-88a6 6 0 0 1-6-6z" stroke="#8ca88e" stroke-width="3" fill="#e3fae3"/><use xlink:href="#f" transform="matrix(1,0,0,1,525,325) translate(27.77777777777778 21.15277777777778)"/><use xlink:href="#e" transform="matrix(1,0,0,1,525,325) translate(5.617283950617285 47.81944444444444)"/><path d="M700 246a6 6 0 0 1 6-6h88a6 6 0 0 1 6 6v48a6 6 0 0 1-6 6h-88a6 6 0 0 1-6-6z" stroke="#8ca88e" stroke-width="3" fill="#fcfcca"/><use xlink:href="#g" transform="matrix(1,0,0,1,705,245) translate(4.506172839506171 30.27777777777778)"/><use xlink:href="#c" transform="matrix(1,0,0,1,705,245) translate(49.69135802469136 30.27777777777778)"/><path d="M570 144.13v11.25" stroke="#5a786f" stroke-width="2" fill="none"/><path d="M571 144.16h-2v-1.03h2z" stroke="#5a786f" stroke-width=".05" fill="#5a786f"/><path d="M570 170.65l-4.64-14.27h9.28z" stroke="#5a786f" stroke-width="2" fill="#5a786f"/><path d="M570 288.33v11.7" stroke="#5a786f" stroke-width="2" fill="none"/><path d="M571 288.36h-2v-1.03h2z" stroke="#5a786f" stroke-width=".05" fill="#5a786f"/><path d="M570 315.3l-4.64-14.27h9.28z" stroke="#5a786f" stroke-width="2" fill="#5a786f"/><path d="M442.97 191.63H464a6 6 0 0 1 6 6v27.97a6 6 0 0 0 6 6h19.8" stroke="#fcce14" stroke-width="3" fill="none"/><path d="M443 193.13h-1.53v-3H443z" stroke="#fcce14" stroke-width=".05" fill="#fcce14"/><path d="M478.38 241.78l17.2-10.18-17.2-10.18M642.96 230.6H664a6 6 0 0 1 6 6V264a6 6 0 0 0 6 6h19.8" stroke="#fcce14" stroke-width="3" fill="none"/><path d="M643 232.1h-1.54v-3H643z" stroke="#fcce14" stroke-width=".05" fill="#fcce14"/><path d="M678.37 280.18L695.6 270l-17.23-10.18" stroke="#fcce14" stroke-width="3" fill="none"/><defs><path fill="#323e45" d="M24-248c120-7 223 5 221 122C244-46 201 0 124 0H24v-248zM76-40c74 7 117-18 117-86 0-67-45-88-117-82v168" id="h"/><path fill="#323e45" d="M135-150c-39-12-60 13-60 57V0H25l-1-190h47c2 13-1 29 3 40 6-28 27-53 61-41v41" id="i"/><path fill="#323e45" d="M123 10C108 53 80 86 19 72V37c35 8 53-11 59-39L3-190h52l48 148c12-52 28-100 44-148h51" id="j"/><path fill="#323e45" d="M185-48c-13 30-37 53-82 52C43 2 14-33 14-96s30-98 90-98c62 0 83 45 84 108H66c0 31 8 55 39 56 18 0 30-7 34-22zm-45-69c5-46-57-63-70-21-2 6-4 13-4 21h74" id="k"/><g id="a"><use transform="matrix(0.1172839506172839,0,0,0.1172839506172839,0,0)" xlink:href="#h"/><use transform="matrix(0.1172839506172839,0,0,0.1172839506172839,30.37654320987653,0)" xlink:href="#i"/><use transform="matrix(0.1172839506172839,0,0,0.1172839506172839,46.796296296296276,0)" xlink:href="#j"/><use transform="matrix(0.1172839506172839,0,0,0.1172839506172839,70.25308641975306,0)" xlink:href="#k"/><use transform="matrix(0.1172839506172839,0,0,0.1172839506172839,93.70987654320984,0)" xlink:href="#i"/></g><path fill="#323e45" d="M30-248c118-7 216 8 213 122C240-48 200 0 122 0H30v-248zM63-27c89 8 146-16 146-99s-60-101-146-95v194" id="l"/><path fill="#323e45" d="M114-163C36-179 61-72 57 0H25l-1-190h30c1 12-1 29 2 39 6-27 23-49 58-41v29" id="m"/><path fill="#323e45" d="M179-190L93 31C79 59 56 82 12 73V49c39 6 53-20 64-50L1-190h34L92-34l54-156h33" id="n"/><path fill="#323e45" d="M24-231v-30h32v30H24zM24 0v-190h32V0H24" id="o"/><path fill="#323e45" d="M117-194c89-4 53 116 60 194h-32v-121c0-31-8-49-39-48C34-167 62-67 57 0H25l-1-190h30c1 10-1 24 2 32 11-22 29-35 61-36" id="p"/><path fill="#323e45" d="M177-190C167-65 218 103 67 71c-23-6-38-20-44-43l32-5c15 47 100 32 89-28v-30C133-14 115 1 83 1 29 1 15-40 15-95c0-56 16-97 71-98 29-1 48 16 59 35 1-10 0-23 2-32h30zM94-22c36 0 50-32 50-73 0-42-14-75-50-75-39 0-46 34-46 75s6 73 46 73" id="q"/><g id="b"><use transform="matrix(0.06172839506172839,0,0,0.06172839506172839,0,0)" xlink:href="#l"/><use transform="matrix(0.06172839506172839,0,0,0.06172839506172839,15.987654320987653,0)" xlink:href="#m"/><use transform="matrix(0.06172839506172839,0,0,0.06172839506172839,23.333333333333332,0)" xlink:href="#n"/><use transform="matrix(0.06172839506172839,0,0,0.06172839506172839,34.44444444444444,0)" xlink:href="#o"/><use transform="matrix(0.06172839506172839,0,0,0.06172839506172839,39.32098765432099,0)" xlink:href="#p"/><use transform="matrix(0.06172839506172839,0,0,0.06172839506172839,51.666666666666664,0)" xlink:href="#q"/></g><path fill="#323e45" d="M141-36C126-15 110 5 73 4 37 3 15-17 15-53c-1-64 63-63 125-63 3-35-9-54-41-54-24 1-41 7-42 31l-33-3c5-37 33-52 76-52 45 0 72 20 72 64v82c-1 20 7 32 28 27v20c-31 9-61-2-59-35zM48-53c0 20 12 33 32 33 41-3 63-29 60-74-43 2-92-5-92 41" id="r"/><path fill="#323e45" d="M135-143c-3-34-86-38-87 0 15 53 115 12 119 90S17 21 10-45l28-5c4 36 97 45 98 0-10-56-113-15-118-90-4-57 82-63 122-42 12 7 21 19 24 35" id="s"/><g id="c"><use transform="matrix(0.06172839506172839,0,0,0.06172839506172839,0,0)" xlink:href="#q"/><use transform="matrix(0.06172839506172839,0,0,0.06172839506172839,12.345679012345679,0)" xlink:href="#r"/><use transform="matrix(0.06172839506172839,0,0,0.06172839506172839,24.691358024691358,0)" xlink:href="#s"/></g><path fill="#323e45" d="M266 0h-40l-56-210L115 0H75L2-248h35L96-30l15-64 43-154h32l59 218 59-218h35" id="t"/><path fill="#323e45" d="M100-194c63 0 86 42 84 106H49c0 40 14 67 53 68 26 1 43-12 49-29l28 8c-11 28-37 45-77 45C44 4 14-33 15-96c1-61 26-98 85-98zm52 81c6-60-76-77-97-28-3 7-6 17-6 28h103" id="u"/><path fill="#323e45" d="M59-47c-2 24 18 29 38 22v24C64 9 27 4 27-40v-127H5v-23h24l9-43h21v43h35v23H59v120" id="v"/><g id="d"><use transform="matrix(0.06172839506172839,0,0,0.06172839506172839,0,0)" xlink:href="#t"/><use transform="matrix(0.06172839506172839,0,0,0.06172839506172839,20.493827160493826,0)" xlink:href="#u"/><use transform="matrix(0.06172839506172839,0,0,0.06172839506172839,32.839506172839506,0)" xlink:href="#v"/></g><path fill="#323e45" d="M210-169c-67 3-38 105-44 169h-31v-121c0-29-5-50-35-48C34-165 62-65 56 0H25l-1-190h30c1 10-1 24 2 32 10-44 99-50 107 0 11-21 27-35 58-36 85-2 47 119 55 194h-31v-121c0-29-5-49-35-48" id="w"/><path fill="#323e45" d="M24 0v-261h32V0H24" id="x"/><g id="e"><use transform="matrix(0.06172839506172839,0,0,0.06172839506172839,0,0)" xlink:href="#w"/><use transform="matrix(0.06172839506172839,0,0,0.06172839506172839,18.456790123456788,0)" xlink:href="#r"/><use transform="matrix(0.06172839506172839,0,0,0.06172839506172839,30.80246913580247,0)" xlink:href="#v"/><use transform="matrix(0.06172839506172839,0,0,0.06172839506172839,36.97530864197531,0)" xlink:href="#u"/><use transform="matrix(0.06172839506172839,0,0,0.06172839506172839,49.32098765432099,0)" xlink:href="#m"/><use transform="matrix(0.06172839506172839,0,0,0.06172839506172839,56.666666666666664,0)" xlink:href="#o"/><use transform="matrix(0.06172839506172839,0,0,0.06172839506172839,61.54320987654321,0)" xlink:href="#r"/><use transform="matrix(0.06172839506172839,0,0,0.06172839506172839,73.88888888888889,0)" xlink:href="#x"/></g><g id="f"><use transform="matrix(0.06172839506172839,0,0,0.06172839506172839,0,0)" xlink:href="#l"/><use transform="matrix(0.06172839506172839,0,0,0.06172839506172839,15.987654320987653,0)" xlink:href="#m"/><use transform="matrix(0.06172839506172839,0,0,0.06172839506172839,23.333333333333332,0)" xlink:href="#n"/></g><g id="g"><use transform="matrix(0.06172839506172839,0,0,0.06172839506172839,0,0)" xlink:href="#t"/><use transform="matrix(0.06172839506172839,0,0,0.06172839506172839,20.493827160493826,0)" xlink:href="#u"/><use transform="matrix(0.06172839506172839,0,0,0.06172839506172839,32.839506172839506,0)" xlink:href="#v"/></g></defs></g></svg>